# Blender 3.3.1
# www.blender.org
mtllib KindOfParadoxTriangle.mtl
o Cube
v -8.021676 -1.000000 1.000000
v -8.021676 1.000000 1.000000
v -8.021676 -1.000000 -1.000000
v -8.021676 1.000000 -1.000000
v 7.978324 -1.000000 1.000000
v 7.978324 1.000000 1.000000
v 7.978324 -1.000000 -1.000000
v 7.978324 1.000000 -1.000000
vn -1.0000 -0.0000 -0.0000
vn -0.0000 -0.0000 -1.0000
vn 1.0000 -0.0000 -0.0000
vn -0.0000 -0.0000 1.0000
vn -0.0000 -1.0000 -0.0000
vn -0.0000 1.0000 -0.0000
vt 0.375000 0.000000
vt 0.375000 1.000000
vt 0.125000 0.750000
vt 0.625000 0.000000
vt 0.625000 1.000000
vt 0.875000 0.750000
vt 0.375000 0.250000
vt 0.125000 0.500000
vt 0.625000 0.250000
vt 0.875000 0.500000
vt 0.375000 0.750000
vt 0.625000 0.750000
vt 0.375000 0.500000
vt 0.625000 0.500000
s 0
f 1/1/1 2/4/1 4/9/1 3/7/1
f 3/7/2 4/9/2 8/14/2 7/13/2
f 7/13/3 8/14/3 6/12/3 5/11/3
f 5/11/4 6/12/4 2/5/4 1/2/4
f 3/8/5 7/13/5 5/11/5 1/3/5
f 8/14/6 4/10/6 2/6/6 6/12/6
o Cube.001
v 7.979072 -1.000000 -0.842285
v 7.979072 1.000000 -0.842285
v 5.979072 -1.000000 -0.842285
v 5.979072 1.000000 -0.842285
v 7.979071 -1.000000 -16.842285
v 7.979071 1.000000 -16.842285
v 5.979071 -1.000000 -16.842285
v 5.979071 1.000000 -16.842285
vn -0.0000 -0.0000 1.0000
vn -1.0000 -0.0000 -0.0000
vn -0.0000 -0.0000 -1.0000
vn 1.0000 -0.0000 -0.0000
vn -0.0000 -1.0000 -0.0000
vn -0.0000 1.0000 -0.0000
vt 0.375000 0.000000
vt 0.375000 1.000000
vt 0.125000 0.750000
vt 0.625000 0.000000
vt 0.625000 1.000000
vt 0.875000 0.750000
vt 0.375000 0.250000
vt 0.125000 0.500000
vt 0.625000 0.250000
vt 0.875000 0.500000
vt 0.375000 0.750000
vt 0.625000 0.750000
vt 0.375000 0.500000
vt 0.625000 0.500000
s 0
f 9/15/7 10/18/7 12/23/7 11/21/7
f 11/21/8 12/23/8 16/28/8 15/27/8
f 15/27/9 16/28/9 14/26/9 13/25/9
f 13/25/10 14/26/10 10/19/10 9/16/10
f 11/22/11 15/27/11 13/25/11 9/17/11
f 16/28/12 12/24/12 10/20/12 14/26/12
o Cube.003
v 0.000000 0.000000 0.000000
v 0.000000 0.000000 0.000000
v 0.000000 0.000000 0.000000
v 0.000000 0.000000 0.000000
v 0.000000 0.000000 0.000000
v 0.000000 0.000000 0.000000
v 0.000000 0.000000 0.000000
v 0.000000 0.000000 0.000000
vn -0.0000 -0.0000 1.0000
vt 0.375000 0.000000
vt 0.375000 1.000000
vt 0.125000 0.750000
vt 0.625000 0.000000
vt 0.625000 1.000000
vt 0.875000 0.750000
vt 0.375000 0.250000
vt 0.125000 0.500000
vt 0.625000 0.250000
vt 0.875000 0.500000
vt 0.375000 0.750000
vt 0.625000 0.750000
vt 0.375000 0.500000
vt 0.625000 0.500000
s 0
f 17/29/13 18/32/13 20/37/13 19/35/13
f 19/35/13 20/37/13 24/42/13 23/41/13
f 23/41/13 24/42/13 22/40/13 21/39/13
f 21/39/13 22/40/13 18/33/13 17/30/13
f 19/36/13 23/41/13 21/39/13 17/31/13
f 24/42/13 20/38/13 18/34/13 22/40/13
o Cube.002
v 7.977225 16.703157 -14.878033
v 7.977225 16.703157 -16.878033
v 5.977225 16.703157 -14.878033
v 5.977225 16.703157 -16.878033
v 7.977225 0.703157 -14.878033
v 7.977225 0.703157 -16.878033
v 5.977225 0.703157 -14.878033
v 5.977225 0.703157 -16.878033
vn -0.0000 1.0000 -0.0000
vn -1.0000 -0.0000 -0.0000
vn -0.0000 -1.0000 -0.0000
vn 1.0000 -0.0000 -0.0000
vn -0.0000 -0.0000 1.0000
vn -0.0000 -0.0000 -1.0000
vt 0.375000 0.000000
vt 0.375000 1.000000
vt 0.125000 0.750000
vt 0.625000 0.000000
vt 0.625000 1.000000
vt 0.875000 0.750000
vt 0.375000 0.250000
vt 0.125000 0.500000
vt 0.625000 0.250000
vt 0.875000 0.500000
vt 0.375000 0.750000
vt 0.625000 0.750000
vt 0.375000 0.500000
vt 0.625000 0.500000
s 0
f 25/43/14 26/46/14 28/51/14 27/49/14
f 27/49/15 28/51/15 32/56/15 31/55/15
f 31/55/16 32/56/16 30/54/16 29/53/16
f 29/53/17 30/54/17 26/47/17 25/44/17
f 27/50/18 31/55/18 29/53/18 25/45/18
f 32/56/19 28/52/19 26/48/19 30/54/19
