# Blender 3.3.1
# www.blender.org
mtllib properModel.mtl
o Cube
v -1.414214 0.000000 1.000000
v 0.000000 1.414214 1.000000
v -1.414214 0.000000 -1.000000
v 0.000000 1.414214 -1.000000
v 0.000000 -1.414214 1.000000
v 1.414214 0.000000 1.000000
v 0.000000 -1.414214 -1.000000
v 1.414214 0.000000 -1.000000
v 1.414214 2.828427 1.000000
v 1.414214 2.828427 -1.000000
v 2.828427 1.414214 -1.000000
v 2.828427 1.414214 1.000000
v 2.828427 4.242641 1.000000
v 2.828427 4.242641 -1.000000
v 4.242641 2.828427 -1.000000
v 4.242641 2.828427 1.000000
v 4.242641 5.656855 1.000000
v 4.242641 5.656855 -1.000000
v 5.656855 4.242641 -1.000000
v 5.656855 4.242641 1.000000
v 5.656855 7.071068 1.000000
v 5.656855 7.071068 -1.000000
v 7.071068 5.656855 -1.000000
v 7.071068 5.656855 1.000000
v 7.071068 8.485282 1.000000
v 7.071068 8.485282 -1.000000
v 8.485282 7.071068 -1.000000
v 8.485282 7.071068 1.000000
v 7.071068 5.656855 3.000000
v 5.656855 7.071068 3.000000
v 8.485282 7.071068 3.000000
v 7.071068 8.485282 3.000000
v 7.071068 5.656855 5.000000
v 5.656855 7.071068 5.000000
v 8.485282 7.071068 5.000000
v 7.071068 8.485282 5.000000
v 7.071068 5.656855 7.000000
v 5.656855 7.071068 7.000000
v 8.485282 7.071068 7.000000
v 7.071068 8.485282 7.000000
v 7.071068 5.656855 9.000000
v 5.656855 7.071068 9.000000
v 8.485282 7.071068 9.000000
v 7.071068 8.485282 9.000000
v 7.071068 5.656855 11.000000
v 5.656855 7.071068 11.000000
v 8.485282 7.071068 11.000000
v 7.071068 8.485282 11.000000
v -2.828427 1.414214 -1.000000
v -2.828427 1.414214 1.000000
v -1.414214 2.828427 1.000000
v -1.414214 2.828427 -1.000000
v -4.242641 2.828427 -1.000000
v -4.242641 2.828427 1.000000
v -2.828427 4.242641 1.000000
v -2.828427 4.242641 -1.000000
v -5.656855 4.242641 -1.000000
v -5.656855 4.242641 1.000000
v -4.242641 5.656855 1.000000
v -4.242641 5.656855 -1.000000
v -7.071068 5.656855 -1.000000
v -7.071068 5.656855 1.000000
v -5.656855 7.071068 1.000000
v -5.656855 7.071068 -1.000000
v -8.316644 7.239707 -0.761510
v -8.316644 7.239707 0.761510
v -7.239707 8.316644 0.761510
v -7.239707 8.316644 -0.761510
v -7.071068 5.656855 3.000000
v -5.656855 7.071068 3.000000
v -8.485282 7.071068 3.000000
v -7.071068 8.485282 3.000000
v -7.071068 5.656855 5.000000
v -5.656855 7.071068 5.000000
v -8.485282 7.071068 5.000000
v -7.071068 8.485282 5.000000
v -7.071068 5.656855 7.000000
v -5.656855 7.071068 7.000000
v -8.485282 7.071068 7.000000
v -7.071068 8.485282 7.000000
v -7.071068 5.656855 9.000000
v -5.656855 7.071068 9.000000
v -8.485282 7.071068 9.000000
v -7.071068 8.485282 9.000000
v -7.071068 5.656855 11.000000
v -5.656855 7.071068 11.000000
v -8.485282 7.071068 11.000000
v -7.071068 8.485282 11.000000
v 5.656855 4.242641 9.000000
v 4.242641 5.656855 9.000000
v 5.656855 4.242641 11.000000
v 4.242641 5.656855 11.000000
v 4.242641 2.828427 9.000000
v 2.828427 4.242641 9.000000
v 4.242641 2.828427 11.000000
v 2.828427 4.242641 11.000000
v 2.828427 1.414214 9.000000
v 1.414214 2.828427 9.000000
v 2.828427 1.414214 11.000000
v 1.414214 2.828427 11.000000
v 1.414214 0.000000 9.000000
v 0.000000 1.414214 9.000000
v 1.414214 0.000000 11.000000
v 0.000000 1.414214 11.000000
v 0.000000 -1.414214 9.000000
v -1.414214 0.000000 9.000000
v 0.000000 -1.414214 11.000000
v -1.414214 0.000000 11.000000
v -1.414214 2.828427 11.000000
v -1.414214 2.828427 9.000000
v -2.828427 1.414214 11.000000
v -2.828427 1.414214 9.000000
v -2.828427 4.242641 11.000000
v -2.828427 4.242641 9.000000
v -4.242641 2.828427 11.000000
v -4.242641 2.828427 9.000000
v -4.242641 5.656855 11.000000
v -4.242641 5.656855 9.000000
v -5.656855 4.242641 11.000000
v -5.656855 4.242641 9.000000
v -1.417252 2.828427 1.000000
v -0.001519 2.201138 1.000000
v 0.000000 2.201138 -1.000000
v -0.707107 2.378237 -1.000000
v -0.709386 2.378237 1.000000
v -0.355453 2.273072 1.000000
v -0.353553 2.273072 -1.000000
v -1.060660 2.550724 -1.000000
v -1.063319 2.550724 1.000000
v 0.706347 2.365695 1.000000
v 0.707107 2.365695 -1.000000
v 0.353553 2.252417 -1.000000
v 0.352414 2.252417 1.000000
v 1.060280 2.554695 1.000000
v 1.060660 2.554695 -1.000000
v -8.485282 7.071068 -1.000000
v -8.485282 7.071068 1.000000
v -7.071068 8.485282 1.000000
v -7.071068 8.485282 -1.000000
v -8.549758 7.472820 -0.761510
v -8.549758 7.472820 0.761510
v -7.472820 8.549758 0.761510
v -7.472820 8.549758 -0.761510
vn 0.7071 0.7071 -0.0000
vn -0.0000 -0.0000 -1.0000
vn 0.7071 -0.7071 -0.0000
vn -0.0000 -0.0000 1.0000
vn -0.7071 -0.7071 -0.0000
vn -0.7071 0.7071 -0.0000
vn 0.6175 0.7866 0.0009
vn -0.1435 0.9897 -0.0001
vn 0.2850 0.9585 0.0003
vn 0.1993 0.9799 0.0002
vn 0.4383 0.8988 0.0005
vn -0.4712 0.8820 -0.0001
vn -0.3050 0.9524 -0.0001
vn -0.6120 0.7909 -0.0001
vt 0.073223 0.750000
vt 0.500000 1.051777
vt 0.676777 0.000000
vt 0.676777 0.875000
vt 0.000000 0.000000
vt 0.073223 0.500000
vt 0.500000 0.198223
vt 0.676777 0.250000
vt 0.676777 0.375000
vt 0.000000 0.000000
vt 0.323223 0.750000
vt 0.323223 0.875000
vt 0.250000 0.750000
vt 0.500000 0.750000
vt 0.500000 0.698223
vt 0.323223 0.375000
vt 0.323223 0.500000
vt 0.250000 0.500000
vt 0.500000 0.500000
vt 0.500000 0.551777
vt 0.853553 0.698223
vt 0.853553 -0.000000
vt 0.000000 0.000000
vt 0.853553 0.551777
vt 0.853553 0.250000
vt 0.000000 0.000000
vt 0.676777 0.728553
vt 0.676777 0.500000
vt 0.676777 0.521447
vt 0.676777 0.750000
vt 1.030330 -0.000000
vt 1.030330 0.521447
vt 1.030330 0.728553
vt 1.030330 0.250000
vt 0.853553 0.905330
vt 0.853553 0.500000
vt 0.853553 0.750000
vt 0.853553 0.344670
vt 1.207106 -0.000000
vt 1.207107 0.344670
vt 1.207106 0.250000
vt 1.207107 0.905330
vt 1.030330 0.500000
vt 1.030330 1.082107
vt 1.030330 0.750000
vt 1.030330 0.167893
vt 1.383884 0.167893
vt 1.383883 -0.000000
vt 1.383883 1.082106
vt 1.383883 0.250000
vt 1.207107 1.258883
vt 1.207106 0.500000
vt 1.207107 -0.008884
vt 1.207106 0.750000
vt 1.560659 -0.000000
vt 0.750000 0.750000
vt 0.750000 0.500000
vt 1.560660 1.258883
vt 1.560659 0.250000
vt 0.573223 0.500000
vt 1.383883 1.435660
vt 1.383883 0.500000
vt 1.383883 0.750000
vt 0.573223 0.750000
vt 1.207106 1.000000
vt 1.207107 -0.008884
vt 1.383884 0.167893
vt 1.383883 -0.250000
vt 1.383883 1.000000
vt 0.573223 1.000000
vt 1.560659 -0.250000
vt 0.750000 1.000000
vt 1.207106 1.250000
vt 1.207107 -0.008884
vt 1.383883 -0.500000
vt 1.383884 0.167893
vt 0.573223 1.250000
vt 1.383883 1.250000
vt 1.560659 -0.500000
vt 0.750000 1.250000
vt 1.207106 1.500000
vt 1.207107 -0.008884
vt 1.383883 0.167893
vt 1.383882 -0.750000
vt 1.383883 1.500000
vt 0.573223 1.500000
vt 1.560659 -0.750000
vt 0.750000 1.500000
vt 1.207107 -0.008884
vt 1.207106 1.750000
vt 1.383883 0.167893
vt 1.383882 -1.000000
vt 0.573223 1.750000
vt 1.383883 1.750000
vt 1.560658 -1.000000
vt 0.750000 1.750000
vt 1.207106 2.000000
vt 1.207107 -0.008884
vt 1.383884 0.167893
vt 1.383882 -1.250000
vt 1.383883 -0.185660
vt 0.573223 2.000000
vt 1.383883 2.000000
vt 1.560660 -0.008884
vt 1.560658 -1.250000
vt 0.750000 2.000000
vt -0.103553 0.500000
vt 0.676777 0.021447
vt -0.103553 0.750000
vt 0.676777 1.228553
vt 0.676777 0.000000
vt 0.853553 1.051777
vt 0.000000 0.000000
vt 0.676777 0.250000
vt 0.853553 0.198223
vt 0.685859 0.250000
vt 0.000000 0.000000
vt 0.853553 -0.155330
vt -0.280330 0.500000
vt 0.853553 1.405330
vt -0.280330 0.750000
vt 1.030330 1.228553
vt 0.676777 0.000000
vt 1.030330 0.021447
vt 0.676777 0.250000
vt -0.457107 0.500000
vt 1.030330 -0.332107
vt 1.030330 1.582106
vt -0.457107 0.750000
vt 1.207107 1.405330
vt 0.676777 0.000000
vt 0.676777 0.250000
vt 1.207107 -0.155330
vt -0.633883 0.500000
vt 1.207106 -0.508883
vt -0.633883 0.750000
vt 1.207107 1.758883
vt 0.676777 0.000000
vt 1.383883 1.582106
vt 0.676777 0.250000
vt 1.383883 -0.332107
vt 0.521080 0.220189
vt 0.521080 0.029811
vt 0.655697 0.029811
vt 0.655697 0.220189
vt 1.207107 1.758883
vt -0.633883 1.000000
vt 0.676777 -0.250000
vt 1.383883 1.582106
vt -0.810660 1.000000
vt 0.500000 -0.250000
vt 0.676776 -0.250000
vt 1.207107 1.758883
vt -0.633883 1.250000
vt 0.676777 -0.500000
vt 1.383883 1.582106
vt -0.810660 1.250000
vt 0.500000 -0.500000
vt 0.676776 -0.500000
vt -0.633884 1.500000
vt 1.207107 1.758883
vt 0.676777 -0.750000
vt 1.383883 1.582106
vt -0.810660 1.500000
vt 0.499999 -0.750000
vt 0.676776 -0.750000
vt 1.207107 1.758883
vt -0.633884 1.750000
vt 2.090990 0.875000
vt 1.383883 1.582106
vt 0.676777 -1.000000
vt 2.090989 0.875000
vt -0.810660 1.750000
vt 0.499999 -1.000000
vt 0.676776 -1.000000
vt -0.633884 2.000000
vt 1.207107 1.758883
vt 2.090990 0.875000
vt 1.383884 1.582107
vt 0.676777 -1.250000
vt 1.383883 1.935659
vt -0.810660 2.000000
vt 0.499999 -1.250000
vt 1.560660 1.758883
vt 0.676776 -1.250000
vt 1.030330 1.750000
vt 1.207107 -0.008884
vt 1.207106 -1.000000
vt 1.383883 0.167893
vt 1.030330 0.167893
vt 1.030330 2.000000
vt 1.207106 -1.250000
vt 1.207107 0.344670
vt 0.853553 1.750000
vt 1.207107 -0.008884
vt 1.383883 0.167893
vt 1.030330 -1.000000
vt 0.853553 1.999999
vt 0.853553 0.344670
vt 1.030329 -1.250000
vt 1.030330 0.521447
vt 0.676777 1.750000
vt 1.207107 -0.008884
vt 0.853554 -1.000000
vt 1.383883 0.167893
vt 0.676776 0.521447
vt 0.676777 1.999999
vt 0.853553 -1.250000
vt 0.853553 0.698223
vt 0.500001 1.750000
vt 1.207107 -0.008884
vt 0.676777 -1.000000
vt 1.383883 0.167893
vt 0.500000 0.698223
vt 0.500000 1.999999
vt 0.676777 -1.250000
vt 0.676777 0.875000
vt 0.323224 1.750000
vt 1.207107 -0.008884
vt 1.383883 0.167893
vt 0.323223 0.875000
vt 1.207107 -0.008884
vt 0.323224 1.999999
vt 0.500000 1.051777
vt 1.383883 0.167893
vt 0.676777 -1.250000
vt 0.853554 1.051777
vt 0.676777 -1.000000
vt 1.560660 0.344670
vt 1.560660 0.344670
vt 0.676777 1.228553
vt 1.560660 0.344670
vt 1.030330 1.228553
vt 0.676777 -1.250000
vt 1.737436 0.521447
vt 0.676777 -1.000000
vt 1.737437 0.521446
vt 0.853554 1.405330
vt 1.737437 0.521446
vt 1.207107 1.405330
vt 0.676777 -1.250000
vt 0.676777 -1.000000
vt 1.914213 0.698223
vt 1.030330 1.582107
vt 1.914213 0.698223
vt 1.914213 0.698223
vt 0.676587 0.000000
vt 0.000000 0.000000
vt 0.765070 -0.000000
vt 0.000000 0.000000
vt 0.769706 0.250000
vt 0.000000 0.000000
vt 0.747993 0.249959
vt 0.000000 0.000000
vt 0.729341 -0.000017
vt 0.000000 0.000000
vt 0.750374 -0.000013
vt 0.000000 0.000000
vt 0.762826 0.249975
vt 0.000000 0.000000
vt 0.722526 0.249963
vt 0.000000 0.000000
vt 0.704543 -0.000014
vt 0.000000 0.000000
vt 0.791114 0.000020
vt 0.000000 0.000000
vt 0.794377 0.250020
vt 0.000000 0.000000
vt 0.777548 0.250018
vt 0.000000 0.000000
vt 0.773349 0.000018
vt 0.000000 0.000000
vt 0.819316 0.000009
vt 0.000000 0.000000
vt 0.821101 0.250009
vt 0.000000 0.000000
vt -0.810660 0.500000
vt 1.383883 -0.685660
vt 0.500000 0.250000
vt -0.810660 0.750000
vt 0.500000 0.000000
vt 0.676777 0.000000
vt 1.560660 -0.508883
vt 0.676777 0.250000
vt 0.521080 0.220189
vt 0.521080 0.029811
vt 0.655697 0.029811
vt 0.655697 0.220189
s 0
f 2/3/1 4/8/1 52/114/1 51/111/1
f 3/7/2 4/9/2 8/20/2 7/16/2
f 7/17/3 8/19/3 6/14/3 5/11/3
f 5/12/4 6/15/4 2/4/4 1/2/4
f 3/6/5 7/18/5 5/13/5 1/1/5
f 6/14/3 8/19/3 11/28/3 12/30/3
f 9/21/4 12/29/4 16/38/4 13/32/4
f 4/8/6 2/3/6 9/22/6 10/25/6
f 2/4/4 6/15/4 12/29/4 9/21/4
f 8/20/2 4/9/2 10/24/2 11/27/2
f 15/35/2 14/33/2 18/42/2 19/44/2
f 11/27/2 10/24/2 14/33/2 15/35/2
f 12/30/3 11/28/3 15/36/3 16/37/3
f 10/25/6 9/22/6 13/31/6 14/34/6
f 20/45/3 19/43/3 23/52/3 24/54/3
f 16/37/3 15/36/3 19/43/3 20/45/3
f 14/34/6 13/31/6 17/39/6 18/41/6
f 13/32/4 16/38/4 20/46/4 17/40/4
f 21/47/5 24/53/5 29/66/5 30/67/5
f 18/41/6 17/39/6 21/48/6 22/50/6
f 17/40/4 20/46/4 24/53/4 21/47/4
f 19/44/2 18/42/2 22/49/2 23/51/2
f 27/60/1 26/57/1 25/56/1 28/64/1
f 23/51/2 22/49/2 26/58/2 27/61/2
f 24/54/3 23/52/3 27/62/3 28/63/3
f 22/50/6 21/48/6 25/55/6 26/59/6
f 29/65/3 31/69/3 35/78/3 33/73/3
f 24/54/3 28/63/3 31/69/3 29/65/3
f 25/55/6 21/48/6 30/68/6 32/71/6
f 28/64/1 25/56/1 32/72/1 31/70/1
f 36/79/6 34/75/6 38/84/6 40/87/6
f 30/67/5 29/66/5 33/74/5 34/76/5
f 32/71/6 30/68/6 34/75/6 36/79/6
f 31/70/1 32/72/1 36/80/1 35/77/1
f 37/81/3 39/85/3 43/94/3 41/90/3
f 35/77/1 36/80/1 40/88/1 39/86/1
f 33/73/3 35/78/3 39/85/3 37/81/3
f 34/76/5 33/74/5 37/82/5 38/83/5
f 42/91/2 41/89/2 89/187/2 90/189/2
f 38/83/5 37/82/5 41/89/5 42/91/5
f 40/87/6 38/84/6 42/92/6 44/95/6
f 39/86/1 40/88/1 44/96/1 43/93/1
f 46/99/4 45/98/4 47/101/4 48/104/4
f 44/95/6 42/92/6 46/100/6 48/105/6
f 43/93/1 44/96/1 48/106/1 47/102/1
f 41/90/3 43/94/3 47/103/3 45/97/3
f 51/111/1 52/114/1 56/125/1 55/123/1
f 3/6/5 1/1/5 50/109/5 49/107/5
f 4/9/2 3/7/2 49/108/2 52/115/2
f 1/2/4 2/4/4 51/112/4 50/110/4
f 56/124/2 53/118/2 57/127/2 60/133/2
f 49/107/5 50/109/5 54/121/5 53/119/5
f 52/115/2 49/108/2 53/118/2 56/124/2
f 50/110/4 51/112/4 55/122/4 54/120/4
f 58/128/4 59/130/4 63/139/4 62/137/4
f 54/120/4 55/122/4 59/130/4 58/128/4
f 55/123/1 56/125/1 60/132/1 59/131/1
f 53/119/5 54/121/5 58/129/5 57/126/5
f 63/138/1 64/140/1 139/284/1 138/282/1
f 59/131/1 60/132/1 64/140/1 63/138/1
f 57/126/5 58/129/5 62/136/5 61/134/5
f 60/133/2 57/127/2 61/135/2 64/141/2
f 65/142/5 66/143/5 141/286/5 140/285/5
f 61/134/5 62/136/5 137/280/5 136/277/5
f 64/141/2 61/135/2 136/278/2 139/283/2
f 63/138/1 138/282/1 72/152/1 70/148/1
f 70/148/1 72/152/1 76/159/1 74/155/1
f 138/282/6 137/281/6 71/151/6 72/152/6
f 137/280/5 62/136/5 69/147/5 71/150/5
f 62/137/3 63/139/3 70/149/3 69/146/3
f 74/155/1 76/159/1 80/166/1 78/162/1
f 69/146/3 70/149/3 74/156/3 73/153/3
f 71/150/5 69/147/5 73/154/5 75/157/5
f 72/152/6 71/151/6 75/158/6 76/159/6
f 79/164/5 77/160/5 81/168/5 83/173/5
f 73/153/3 74/156/3 78/163/3 77/161/3
f 75/157/5 73/154/5 77/160/5 79/164/5
f 76/159/6 75/158/6 79/165/6 80/166/6
f 82/171/1 84/175/1 88/185/1 86/180/1
f 80/166/6 79/165/6 83/174/6 84/175/6
f 78/162/1 80/166/1 84/175/1 82/171/1
f 77/161/3 78/163/3 82/170/3 81/167/3
f 85/177/4 86/179/4 88/184/4 87/181/4
f 81/167/3 82/170/3 86/179/3 85/177/3
f 83/173/5 81/168/5 85/176/5 87/182/5
f 84/175/6 83/174/6 87/183/6 88/185/6
f 92/192/6 90/188/6 94/197/6 96/200/6
f 41/90/3 45/97/3 91/191/3 89/186/3
f 45/98/4 46/99/4 92/193/4 91/190/4
f 46/100/6 42/92/6 90/188/6 92/192/6
f 93/194/3 95/198/3 99/207/3 97/202/3
f 91/190/4 92/193/4 96/201/4 95/199/4
f 89/186/3 91/191/3 95/198/3 93/194/3
f 90/189/2 89/187/2 93/195/2 94/196/2
f 100/208/6 98/204/6 102/212/6 104/216/6
f 94/196/2 93/195/2 97/203/2 98/205/2
f 96/200/6 94/197/6 98/204/6 100/208/6
f 95/199/4 96/201/4 100/209/4 99/206/4
f 103/214/4 104/217/4 108/224/4 107/221/4
f 99/206/4 100/209/4 104/217/4 103/214/4
f 97/202/3 99/207/3 103/215/3 101/210/3
f 98/205/2 97/203/2 101/211/2 102/213/2
f 106/220/5 105/219/5 107/222/5 108/225/5
f 101/210/3 103/215/3 107/223/3 105/218/3
f 102/213/2 101/211/2 105/219/2 106/220/2
f 104/216/1 102/212/1 110/228/1 109/226/1
f 109/226/1 110/228/1 114/236/1 113/234/1
f 108/224/4 104/217/4 109/227/4 111/231/4
f 102/213/2 106/220/2 112/232/2 110/229/2
f 106/220/5 108/225/5 111/230/5 112/232/5
f 114/235/2 116/239/2 120/246/2 118/243/2
f 110/229/2 112/232/2 116/239/2 114/235/2
f 112/232/5 111/230/5 115/237/5 116/239/5
f 111/231/4 109/227/4 113/233/4 115/238/4
f 119/244/4 117/240/4 86/179/4 85/177/4
f 116/239/5 115/237/5 119/245/5 120/246/5
f 115/238/4 113/233/4 117/240/4 119/244/4
f 113/234/1 114/236/1 118/242/1 117/241/1
f 117/241/1 118/242/1 82/171/1 86/180/1
f 118/243/2 120/246/2 81/169/2 82/172/2
f 120/246/5 119/245/5 85/178/5 81/169/5
f 129/263/7 128/261/7 52/116/7 121/247/7
f 133/271/8 132/269/8 123/251/8 122/249/8
f 126/257/9 127/259/9 124/253/9 125/255/9
f 122/249/10 123/251/10 127/259/10 126/257/10
f 125/255/11 124/253/11 128/261/11 129/263/11
f 134/273/12 135/275/12 131/267/12 130/265/12
f 130/265/13 131/267/13 132/269/13 133/271/13
f 9/22/14 10/25/14 135/275/14 134/273/14
f 135/276/2 10/26/2 4/10/2 52/117/2 128/262/2 124/254/2 127/260/2 123/252/2 132/270/2 131/268/2
f 51/113/4 2/5/4 9/23/4 134/274/4 130/266/4 133/272/4 122/250/4 126/258/4 125/256/4 129/264/4 121/248/4
f 66/143/6 65/142/6 136/279/6 137/281/6
f 67/144/6 66/143/6 137/281/6 138/282/6
f 68/145/6 67/144/6 138/282/6 139/284/6
f 65/142/6 68/145/6 139/284/6 136/279/6
f 141/286/6 142/287/6 143/288/6 140/285/6
f 68/145/2 65/142/2 140/285/2 143/288/2
f 66/143/4 67/144/4 142/287/4 141/286/4
f 67/144/1 68/145/1 143/288/1 142/287/1
